<svg width="98" height="91" viewBox="0 0 98 91" fill="none" xmlns="http://www.w3.org/2000/svg">
  <path d="M31.7501 53.0417H40.1251V36.2917H56.8751V53.0417H65.2501V27.9167L48.5001 15.3542L31.7501 27.9167V53.0417ZM26.1667 58.625V25.125L48.5001 8.375L70.8334 25.125V58.625H51.2917V41.875H45.7084V58.625H26.1667Z" fill="#0b375b"/>
  <path d="M16.1723 67.6H21.3563V90H16.1723V67.6ZM5.99625 90H0.81225V67.6H5.99625V90ZM16.5563 80.816H5.61225V76.432H16.5563V80.816ZM34.496 90.256C32.6613 90.256 31.0293 89.872 29.6 89.104C28.192 88.336 27.072 87.2907 26.24 85.968C25.4293 84.624 25.024 83.0987 25.024 81.392C25.024 79.664 25.4293 78.1387 26.24 76.816C27.072 75.472 28.192 74.4267 29.6 73.68C31.0293 72.912 32.6613 72.528 34.496 72.528C36.3093 72.528 37.9307 72.912 39.36 73.68C40.7893 74.4267 41.9093 75.4613 42.72 76.784C43.5307 78.1067 43.936 79.6427 43.936 81.392C43.936 83.0987 43.5307 84.624 42.72 85.968C41.9093 87.2907 40.7893 88.336 39.36 89.104C37.9307 89.872 36.3093 90.256 34.496 90.256ZM34.496 86.16C35.328 86.16 36.0747 85.968 36.736 85.584C37.3973 85.2 37.92 84.656 38.304 83.952C38.688 83.2267 38.88 82.3733 38.88 81.392C38.88 80.3893 38.688 79.536 38.304 78.832C37.92 78.128 37.3973 77.584 36.736 77.2C36.0747 76.816 35.328 76.624 34.496 76.624C33.664 76.624 32.9173 76.816 32.256 77.2C31.5947 77.584 31.0613 78.128 30.656 78.832C30.272 79.536 30.08 80.3893 30.08 81.392C30.08 82.3733 30.272 83.2267 30.656 83.952C31.0613 84.656 31.5947 85.2 32.256 85.584C32.9173 85.968 33.664 86.16 34.496 86.16ZM69.3208 72.528C70.6861 72.528 71.8914 72.8053 72.9368 73.36C74.0034 73.8933 74.8354 74.7253 75.4328 75.856C76.0514 76.9653 76.3608 78.3947 76.3608 80.144V90H71.3688V80.912C71.3688 79.5253 71.0808 78.5013 70.5048 77.84C69.9288 77.1787 69.1181 76.848 68.0728 76.848C67.3474 76.848 66.6968 77.0187 66.1208 77.36C65.5448 77.68 65.0968 78.1707 64.7768 78.832C64.4568 79.4933 64.2968 80.336 64.2968 81.36V90H59.3048V80.912C59.3048 79.5253 59.0168 78.5013 58.4408 77.84C57.8861 77.1787 57.0861 76.848 56.0408 76.848C55.3154 76.848 54.6648 77.0187 54.0888 77.36C53.5128 77.68 53.0648 78.1707 52.7448 78.832C52.4248 79.4933 52.2648 80.336 52.2648 81.36V90H47.2728V72.784H52.0408V77.488L51.1448 76.112C51.7421 74.9387 52.5848 74.0533 53.6728 73.456C54.7821 72.8373 56.0408 72.528 57.4488 72.528C59.0274 72.528 60.4034 72.9333 61.5768 73.744C62.7714 74.5333 63.5608 75.7493 63.9448 77.392L62.1848 76.912C62.7608 75.568 63.6781 74.5013 64.9368 73.712C66.2168 72.9227 67.6781 72.528 69.3208 72.528ZM89.5043 90.256C87.5416 90.256 85.8136 89.872 84.3203 89.104C82.8483 88.336 81.7069 87.2907 80.8963 85.968C80.0856 84.624 79.6803 83.0987 79.6803 81.392C79.6803 79.664 80.0749 78.1387 80.8643 76.816C81.6749 75.472 82.7736 74.4267 84.1603 73.68C85.5469 72.912 87.1149 72.528 88.8643 72.528C90.5496 72.528 92.0643 72.8907 93.4083 73.616C94.7736 74.32 95.8509 75.344 96.6403 76.688C97.4296 78.0107 97.8243 79.6 97.8243 81.456C97.8243 81.648 97.8136 81.872 97.7923 82.128C97.7709 82.3627 97.7496 82.5867 97.7283 82.8H83.7443V79.888H95.1042L93.1843 80.752C93.1843 79.856 93.0029 79.0773 92.6403 78.416C92.2776 77.7547 91.7763 77.2427 91.1363 76.88C90.4963 76.496 89.7496 76.304 88.8963 76.304C88.0429 76.304 87.2856 76.496 86.6243 76.88C85.9843 77.2427 85.4829 77.7653 85.1203 78.448C84.7576 79.1093 84.5763 79.8987 84.5763 80.816V81.584C84.5763 82.5227 84.7789 83.3547 85.1843 84.08C85.6109 84.784 86.1976 85.328 86.9443 85.712C87.7123 86.0747 88.6083 86.256 89.6323 86.256C90.5496 86.256 91.3496 86.1173 92.0323 85.84C92.7363 85.5627 93.3763 85.1467 93.9523 84.592L96.6083 87.472C95.8189 88.368 94.8269 89.0613 93.6323 89.552C92.4376 90.0213 91.0616 90.256 89.5043 90.256Z" fill="#0b375b"/>
</svg>